<?xml version="1.0" encoding="UTF-8" standalone="no"?>
<!-- Created with Inkscape (http://www.inkscape.org/) -->

<svg
   xmlns:dc="http://purl.org/dc/elements/1.1/"
   xmlns:cc="http://creativecommons.org/ns#"
   xmlns:rdf="http://www.w3.org/1999/02/22-rdf-syntax-ns#"
   xmlns:svg="http://www.w3.org/2000/svg"
   xmlns="http://www.w3.org/2000/svg"
   xmlns:sodipodi="http://sodipodi.sourceforge.net/DTD/sodipodi-0.dtd"
   xmlns:inkscape="http://www.inkscape.org/namespaces/inkscape"
   width="104.50238mm"
   height="104.50238mm"
   viewBox="0 0 104.50238 104.50238"
   version="1.1"
   id="svg957"
   inkscape:version="0.92.4 5da689c313, 2019-01-14"
   sodipodi:docname="logo.svg">
  <defs
     id="defs951" />
  <sodipodi:namedview
     id="base"
     pagecolor="#ffffff"
     bordercolor="#666666"
     borderopacity="1.0"
     inkscape:pageopacity="0.0"
     inkscape:pageshadow="2"
     inkscape:zoom="0.98994949"
     inkscape:cx="58.387476"
     inkscape:cy="172.90234"
     inkscape:document-units="mm"
     inkscape:current-layer="layer1"
     showgrid="false"
     fit-margin-top="0"
     fit-margin-left="0"
     fit-margin-right="0"
     fit-margin-bottom="0"
     inkscape:window-width="1920"
     inkscape:window-height="1023"
     inkscape:window-x="0"
     inkscape:window-y="0"
     inkscape:window-maximized="1" />
  <metadata
     id="metadata954">
    <rdf:RDF>
      <cc:Work
         rdf:about="">
        <dc:format>image/svg+xml</dc:format>
        <dc:type
           rdf:resource="http://purl.org/dc/dcmitype/StillImage" />
        <dc:title />
      </cc:Work>
    </rdf:RDF>
  </metadata>
  <g
     inkscape:label="Layer 1"
     inkscape:groupmode="layer"
     id="layer1"
     transform="translate(-16.30344,-144.92363)">
    <path
       id="path5"
       d="m 33.802733,196.57389 c 0,0 0.408252,1.86319 2.308225,2.64768 0,0 -3.657336,-0.7448 -6.178286,1.08638 0,0 50.657389,18.41077 57.391035,10.24255 0,0 -6.339417,-6.79106 -19.409833,-10.93285 -14.190927,-4.49685 -19.163506,-1.89203 -34.111141,-3.04376 z"
       inkscape:connector-curvature="0"
       style="fill:#b3b3b3;stroke-width:0.26458332" />
    <path
       id="path7"
       d="m 95.034988,168.42804 c 0,0 -2.135981,0.19818 -4.315619,-1.01388 -2.616993,-1.45574 -4.909079,-5.08053 -8.138054,-3.28666 -2.963862,1.64677 -2.287587,5.58165 2.504017,10.48571 4.51485,4.62094 11.320462,8.50265 17.632888,16.48433 6.31217,7.98142 12.12877,24.92746 2.55614,35.36818 -2.41617,2.63525 -14.492549,14.83042 -34.620461,13.52788 -20.127648,-1.30228 -41.557575,-7.85865 -44.991337,-39.35227 0,0 0.568854,1.22608 1.74916,1.49807 0,0 -0.272256,-0.99854 -0.953558,-1.77059 -0.681037,-0.77179 -1.27344,-2.36088 -0.795867,-3.54119 0,0 3.256227,3.02922 9.945688,3.20675 6.68946,0.1778 20.300156,-2.43734 31.612151,2.13122 9.572361,3.86583 17.071181,10.7913 22.259131,7.63667 4.339432,-2.63895 5.150115,-10.7151 0.828675,-16.99022 -4.321439,-6.27512 -11.423649,-13.1945 -14.326129,-18.5883 -2.925762,-5.43666 -4.172743,-11.76946 1.975644,-17.05742 4.550833,-3.91345 16.884914,-4.61195 21.171164,2.55349 0,0 -2.604822,2.55852 -3.01916,3.97272 -0.414337,1.41446 -1.074473,4.73551 -1.074473,4.73551 z"
       inkscape:connector-curvature="0"
       style="fill:#f9f9f9;stroke-width:0.26458332" />
    <path
       id="path9"
       d="m 105.26748,167.91898 6.35239,4.79505 c 0,0 -0.26644,0.41434 -1.27292,0.20717 -1.00647,-0.20717 -1.06547,0.82894 -2.57492,0.32543 -1.50971,-0.50297 -6.9559,-3.996 -8.820679,-4.17327 -1.864784,-0.1778 -3.273955,0.0415 -3.916363,-0.64505 -0.642144,-0.68686 0.393965,-2.84771 2.051579,-3.52849 1.657615,-0.68077 5.061483,1.18401 5.949423,1.98306 0.88768,0.79904 2.23149,1.0361 2.23149,1.0361 z"
       inkscape:connector-curvature="0"
       style="fill:#f7931e;stroke-width:0.26458332" />
    <path
       id="path11"
       d="m 91.211759,159.62377 c 1.081352,-0.75301 3.436673,1.04272 5.444596,0.46355 1.402027,-0.40455 3.147218,-2.0275 5.232135,-0.46355 1.41817,1.06389 0.40534,3.06996 0.6178,5.32871 0.14446,1.53802 2.76093,2.9665 2.76093,2.9665 0,0 -1.74228,0.71994 -2.97312,-0.70723 -2.297645,-2.66435 -6.293912,-2.54846 -7.259376,1.21656 0,0 -0.869421,-1.46236 -0.328613,-5.2713 0,0 -1.260475,-0.9644 -2.16244,-1.73725 -1.216289,-1.04299 -1.331912,-1.79599 -1.331912,-1.79599 z"
       inkscape:connector-curvature="0"
       style="stroke-width:0.26458332" />
    <path
       id="path13"
       d="m 30.401249,199.23083 c 0,0 0.392377,2.55958 2.563019,3.9804 0,0 -2.128837,-0.0394 -2.920471,-0.71068 0,0 0.27649,3.1967 2.920471,4.85431 0,0 -1.262856,0.11854 -1.815306,-0.35507 0,0 0.868098,3.98595 5.091112,5.80152 0,0 -1.381389,0.15796 -2.486289,-0.55245 0,0 1.73646,4.53866 6.314545,6.51166 0,0 -1.262856,-0.0394 -2.328597,-0.39449 0,0 2.604822,4.02537 6.630193,5.72267 0,0 -0.552185,0.19712 -1.341437,0 0,0 11.46466,11.64246 30.028356,10.04411 0,0 -16.559742,4.54634 -32.957823,-10.84553 0,0 0.152136,-0.27411 0.730779,-0.22834 0,0 -4.306358,-2.62122 -5.875073,-5.72928 0,0 0.4318,-0.10266 0.873919,-0.0304 0,0 -3.081337,-2.8993 -4.087548,-5.95789 0,0 0.276225,-0.15822 0.670719,-0.19738 0,0 -2.328333,-2.46644 -2.801937,-5.09111 0,0 0.296068,-0.15769 0.848518,-0.0984 0,0 -1.243277,-1.44066 -1.420812,-4.22302 0,0 0.236802,-0.21696 0.769673,-0.0987 0,0 -0.552979,-1.16999 -0.513027,-2.77521 0,-2.7e-4 0.483923,0.19896 1.107016,0.37332 z"
       inkscape:connector-curvature="0"
       style="fill:#cccccc;stroke-width:0.26458332" />
  </g>
</svg>
